<mxfile host="app.diagrams.net" agent="Mozilla/5.0 (Windows NT 10.0; Win64; x64) AppleWebKit/537.36 (KHTML, like Gecko) Chrome/141.0.0.0 Safari/537.36" version="28.2.5">
  <diagram name="Page-1" id="W8TmZSDapTjWwccGfJ8A">
    <mxGraphModel dx="1011" dy="670" grid="1" gridSize="10" guides="1" tooltips="1" connect="1" arrows="1" fold="1" page="1" pageScale="1" pageWidth="850" pageHeight="1100" math="0" shadow="0">
      <root>
        <mxCell id="0" />
        <mxCell id="1" parent="0" />
        <mxCell id="x64_LRADaP3kFUldRMYV-3" style="edgeStyle=orthogonalEdgeStyle;rounded=0;orthogonalLoop=1;jettySize=auto;html=1;entryX=0.5;entryY=0;entryDx=0;entryDy=0;" edge="1" parent="1" source="x64_LRADaP3kFUldRMYV-1" target="x64_LRADaP3kFUldRMYV-2">
          <mxGeometry relative="1" as="geometry" />
        </mxCell>
        <mxCell id="x64_LRADaP3kFUldRMYV-1" value="เริ่มต้น" style="ellipse;whiteSpace=wrap;html=1;" vertex="1" parent="1">
          <mxGeometry x="373" y="30" width="105" height="60" as="geometry" />
        </mxCell>
        <mxCell id="x64_LRADaP3kFUldRMYV-5" style="edgeStyle=orthogonalEdgeStyle;rounded=0;orthogonalLoop=1;jettySize=auto;html=1;entryX=0.5;entryY=0;entryDx=0;entryDy=0;" edge="1" parent="1" source="x64_LRADaP3kFUldRMYV-2" target="x64_LRADaP3kFUldRMYV-4">
          <mxGeometry relative="1" as="geometry" />
        </mxCell>
        <mxCell id="x64_LRADaP3kFUldRMYV-2" value="กำหนดตัวแปร a, b, c" style="rounded=0;whiteSpace=wrap;html=1;" vertex="1" parent="1">
          <mxGeometry x="365.5" y="120" width="120" height="40" as="geometry" />
        </mxCell>
        <mxCell id="x64_LRADaP3kFUldRMYV-7" style="edgeStyle=orthogonalEdgeStyle;rounded=0;orthogonalLoop=1;jettySize=auto;html=1;entryX=0.5;entryY=0;entryDx=0;entryDy=0;" edge="1" parent="1" source="x64_LRADaP3kFUldRMYV-4" target="x64_LRADaP3kFUldRMYV-6">
          <mxGeometry relative="1" as="geometry" />
        </mxCell>
        <mxCell id="x64_LRADaP3kFUldRMYV-4" value="กรุณาใส่ตัวเลข 3 ตัว" style="shape=parallelogram;perimeter=parallelogramPerimeter;whiteSpace=wrap;html=1;fixedSize=1;" vertex="1" parent="1">
          <mxGeometry x="350.5" y="190" width="150" height="40" as="geometry" />
        </mxCell>
        <mxCell id="x64_LRADaP3kFUldRMYV-9" style="edgeStyle=orthogonalEdgeStyle;rounded=0;orthogonalLoop=1;jettySize=auto;html=1;entryX=0.5;entryY=0;entryDx=0;entryDy=0;" edge="1" parent="1" source="x64_LRADaP3kFUldRMYV-6" target="x64_LRADaP3kFUldRMYV-8">
          <mxGeometry relative="1" as="geometry" />
        </mxCell>
        <mxCell id="x64_LRADaP3kFUldRMYV-6" value="นำตัวใส่ในตัวแปร a, b, c" style="rounded=0;whiteSpace=wrap;html=1;" vertex="1" parent="1">
          <mxGeometry x="360" y="260" width="130" height="40" as="geometry" />
        </mxCell>
        <mxCell id="x64_LRADaP3kFUldRMYV-11" style="edgeStyle=orthogonalEdgeStyle;rounded=0;orthogonalLoop=1;jettySize=auto;html=1;entryX=0.5;entryY=0;entryDx=0;entryDy=0;" edge="1" parent="1" source="x64_LRADaP3kFUldRMYV-8" target="x64_LRADaP3kFUldRMYV-10">
          <mxGeometry relative="1" as="geometry" />
        </mxCell>
        <mxCell id="x64_LRADaP3kFUldRMYV-8" value="A+B+C = ผลรวม" style="rounded=0;whiteSpace=wrap;html=1;" vertex="1" parent="1">
          <mxGeometry x="360.5" y="330" width="130" height="40" as="geometry" />
        </mxCell>
        <mxCell id="x64_LRADaP3kFUldRMYV-14" style="edgeStyle=orthogonalEdgeStyle;rounded=0;orthogonalLoop=1;jettySize=auto;html=1;" edge="1" parent="1" source="x64_LRADaP3kFUldRMYV-10" target="x64_LRADaP3kFUldRMYV-13">
          <mxGeometry relative="1" as="geometry" />
        </mxCell>
        <mxCell id="x64_LRADaP3kFUldRMYV-10" value="แสดงผลรวม" style="shape=parallelogram;perimeter=parallelogramPerimeter;whiteSpace=wrap;html=1;fixedSize=1;" vertex="1" parent="1">
          <mxGeometry x="350" y="400" width="150" height="40" as="geometry" />
        </mxCell>
        <mxCell id="x64_LRADaP3kFUldRMYV-13" value="จบการทำงาน" style="ellipse;whiteSpace=wrap;html=1;" vertex="1" parent="1">
          <mxGeometry x="373" y="470" width="105" height="60" as="geometry" />
        </mxCell>
      </root>
    </mxGraphModel>
  </diagram>
</mxfile>
